<svg width="604" height="492" viewBox="0 0 604 492" fill="none" xmlns="http://www.w3.org/2000/svg">
<path d="M592.135 300.657L592.317 300.143C549.519 300.143 523.336 274.055 491.854 252.083C468.989 236.121 443.351 222.332 406.461 222.332C389.883 222.332 375.812 222.463 363.865 222.83H327.97C340.301 223.261 350.19 233.332 350.19 245.778C350.19 258.507 339.866 268.828 327.14 268.828H276.03C276.295 268.844 276.559 268.911 276.844 268.911H326.145H358.555C375.031 271.602 387.627 285.873 387.627 303.112C387.627 316.189 380.326 327.423 369.638 333.333C367.05 334.013 354.553 337.331 337.86 341.761C327.125 344.349 316.904 347.087 307.343 349.844L305.269 350.39C269.393 359.884 230.761 370.054 223.759 371.698C219.113 371.947 214.881 371.73 211.147 370.817L82.459 287.383L59.144 270.524V270.572C58.033 269.826 56.852 269.197 55.643 268.581C53.932 267.719 52.158 266.937 50.281 266.376C48.804 265.926 47.278 265.61 45.734 265.38C44.075 265.131 42.4 264.946 40.692 264.946C38.384 264.946 36.145 265.179 33.987 265.629C14.97 267.268 0 283.051 0 302.483C0 312.755 4.266 321.946 11.051 328.635L11.019 328.667L11.201 328.801C13.907 331.44 16.942 333.713 20.327 335.439L29.189 341.879L230.908 488.106L230.924 488.09C231.738 488.406 232.567 488.719 233.397 489.05C237.945 490.627 242.741 491.658 247.802 491.658C250.773 491.658 253.658 491.342 256.463 490.777L257.458 490.528C325.795 473.12 467.012 437.245 533.105 420.95C534.733 420.334 536.258 419.789 537.87 419.189C554.729 414.941 577.728 409.916 592.134 409.916V400.272L592.316 400.256L592.134 386.997V303.563V300.657H592.135Z" fill="url(#paint0_linear_19_2)"/>
<path d="M234.362 158.326C236.95 157.631 249.447 154.312 266.124 149.898C276.875 147.31 287.081 144.571 296.658 141.815L298.713 141.269C334.592 131.775 373.221 121.605 380.242 119.961C384.872 119.712 389.12 119.91 392.854 120.842L521.543 204.26L544.842 221.119L544.858 221.088C545.952 221.834 547.15 222.463 548.343 223.063C550.069 223.941 551.843 224.722 553.72 225.284C555.179 225.734 556.723 226.049 558.267 226.279C559.907 226.528 561.586 226.694 563.309 226.694C565.6 226.694 567.841 226.464 570.014 226.014C589.014 224.37 604 208.606 604 189.174C604 178.886 599.717 169.692 592.949 163.006L592.965 162.971L592.799 162.84C590.093 160.217 587.058 157.944 583.672 156.218L574.81 149.762L373.09 3.53702L373.074 3.56802C372.244 3.25202 371.415 2.939 370.585 2.608C366.054 1.032 361.257 0 356.18 0C353.225 0 350.34 0.316021 347.535 0.865021L346.523 1.13C278.186 18.519 136.969 54.413 70.8919 70.708C69.2639 71.308 67.7199 71.869 66.1269 72.469C49.2679 76.701 26.2679 81.727 11.8629 81.727V91.387L11.6809 91.403L11.8629 104.662V188.08V190.999L11.6809 191.513C54.4619 191.513 80.6619 217.601 112.144 239.572C135.009 255.518 160.631 269.323 197.537 269.323C214.115 269.323 228.185 269.173 240.133 268.825H276.028H327.138C339.864 268.825 350.188 258.505 350.188 245.775C350.188 233.329 340.298 223.258 327.968 222.827C327.687 222.811 327.419 222.744 327.139 222.744H277.853H245.444C228.968 220.038 216.372 205.783 216.372 188.544C216.373 175.469 223.675 164.217 234.362 158.326Z" fill="url(#paint1_linear_19_2)"/>
<defs>
<linearGradient id="paint0_linear_19_2" x1="296.159" y1="222.332" x2="296.159" y2="491.658" gradientUnits="userSpaceOnUse">
<stop stop-color="#F69051"/>
<stop offset="1" stop-color="#F5853F"/>
</linearGradient>
<linearGradient id="paint1_linear_19_2" x1="11.6809" y1="134.662" x2="604" y2="134.662" gradientUnits="userSpaceOnUse">
<stop stop-color="#D8DBE3"/>
<stop offset="1" stop-color="#E8EBF0"/>
</linearGradient>
</defs>
</svg>
