<svg width="604" height="492" viewBox="0 0 604 492" fill="none" xmlns="http://www.w3.org/2000/svg">
<path d="M592.135 300.828L592.317 300.314C549.519 300.314 523.336 274.226 491.854 252.254C468.989 236.292 443.351 222.503 406.461 222.503C389.883 222.503 375.812 222.634 363.865 223.001H327.97C340.301 223.432 350.19 233.503 350.19 245.949C350.19 258.678 339.866 268.999 327.14 268.999H276.03C276.295 269.015 276.559 269.082 276.844 269.082H326.145H358.555C375.031 271.773 387.627 286.044 387.627 303.283C387.627 316.36 380.326 327.594 369.638 333.504C367.05 334.184 354.553 337.502 337.86 341.932C327.125 344.52 316.904 347.258 307.343 350.015L305.269 350.561C269.393 360.055 230.761 370.225 223.759 371.869C219.113 372.118 214.881 371.901 211.147 370.988L82.459 287.554L59.144 270.695V270.743C58.033 269.997 56.852 269.368 55.643 268.752C53.932 267.89 52.158 267.108 50.281 266.547C48.804 266.097 47.278 265.781 45.734 265.551C44.075 265.302 42.4 265.117 40.692 265.117C38.384 265.117 36.145 265.35 33.987 265.8C14.97 267.439 0 283.222 0 302.654C0 312.926 4.266 322.117 11.051 328.806L11.019 328.838L11.201 328.972C13.907 331.611 16.942 333.884 20.327 335.61L29.189 342.05L230.908 488.277L230.924 488.261C231.738 488.577 232.567 488.89 233.397 489.221C237.945 490.798 242.741 491.829 247.802 491.829C250.773 491.829 253.658 491.513 256.463 490.948L257.458 490.699C325.795 473.291 467.012 437.416 533.105 421.121C534.733 420.505 536.258 419.96 537.87 419.36C554.729 415.112 577.728 410.087 592.134 410.087V400.443L592.316 400.427L592.134 387.168V303.734V300.828H592.135Z" fill="url(#paint0_linear_16_6)"/>
<path d="M234.362 158.497C236.95 157.802 249.447 154.483 266.124 150.069C276.875 147.481 287.081 144.742 296.658 141.986L298.713 141.44C334.592 131.946 373.221 121.776 380.242 120.132C384.872 119.883 389.12 120.081 392.854 121.013L521.543 204.431L544.842 221.29L544.858 221.259C545.952 222.005 547.15 222.634 548.343 223.234C550.069 224.112 551.843 224.893 553.72 225.455C555.179 225.905 556.723 226.22 558.267 226.45C559.907 226.699 561.586 226.865 563.309 226.865C565.6 226.865 567.841 226.635 570.014 226.185C589.014 224.541 604 208.777 604 189.345C604 179.057 599.717 169.863 592.949 163.177L592.965 163.142L592.799 163.011C590.093 160.388 587.058 158.115 583.672 156.389L574.81 149.933L373.09 3.70792L373.074 3.73892C372.244 3.42292 371.415 3.1099 370.585 2.7789C366.054 1.2029 361.257 0.170898 356.18 0.170898C353.225 0.170898 350.34 0.486919 347.535 1.03592L346.523 1.3009C278.186 18.6899 136.969 54.5839 70.892 70.8789C69.264 71.4789 67.72 72.0399 66.127 72.6399C49.268 76.8719 26.268 81.8979 11.863 81.8979V91.5579L11.681 91.5739L11.863 104.833V188.251V191.17L11.681 191.684C54.462 191.684 80.662 217.772 112.144 239.743C135.009 255.689 160.631 269.494 197.537 269.494C214.115 269.494 228.185 269.344 240.133 268.996H276.028H327.138C339.864 268.996 350.188 258.676 350.188 245.946C350.188 233.5 340.298 223.429 327.968 222.998C327.687 222.982 327.419 222.915 327.139 222.915H277.853H245.444C228.968 220.209 216.372 205.954 216.372 188.715C216.373 175.64 223.675 164.388 234.362 158.497Z" fill="url(#paint1_linear_16_6)"/>
<defs>
<linearGradient id="paint0_linear_16_6" x1="296.159" y1="222.503" x2="296.159" y2="491.829" gradientUnits="userSpaceOnUse">
<stop stop-color="#00B37E"/>
<stop offset="1" stop-color="#00875F"/>
</linearGradient>
<linearGradient id="paint1_linear_16_6" x1="11.681" y1="134.832" x2="604" y2="134.832" gradientUnits="userSpaceOnUse">
<stop stop-color="#D8DBE3"/>
<stop offset="1" stop-color="#E8EBF0"/>
</linearGradient>
</defs>
</svg>
